<svg width="175" height="140" viewBox="0 0 175 140" fill="none" xmlns="http://www.w3.org/2000/svg">
<path d="M63.4316 13.9097C42.7139 13.9097 25.8589 30.7629 25.8589 51.4824C25.8589 72.2015 42.7121 89.0551 63.4316 89.0551C84.1511 89.0551 101.004 72.2047 101.004 51.4824C101.004 30.7662 84.1468 13.9097 63.4316 13.9097ZM97.0919 55.5278L80.2594 68.0168L70.8369 62.1662C70.9978 61.7127 71.1322 61.2467 71.2386 60.7792C71.4611 59.7924 70.8439 58.8084 69.8543 58.5859C68.8676 58.3633 67.8878 58.9834 67.6638 59.9702C67.3755 61.2467 66.7891 62.4657 65.9688 63.4959C65.3404 64.2881 65.4692 65.4428 66.2614 66.0699C66.5959 66.3414 67.0004 66.4688 67.4007 66.4688C67.941 66.4688 68.4742 66.2322 68.8367 65.7787C68.9291 65.657 69.0215 65.5338 69.1111 65.4092L80.4399 72.4426L95.9986 60.8981C91.9073 75.0221 78.8568 85.3795 63.4297 85.3795C56.8582 85.3795 50.7178 83.4969 45.5169 80.247L53.1676 68.9924C53.3425 69.0848 53.5147 69.1771 53.691 69.2611C53.9458 69.3857 54.2173 69.4431 54.4832 69.4431C55.1677 69.4431 55.8241 69.0596 56.139 68.4003C56.5771 67.4877 56.1908 66.3918 55.2782 65.9565C54.0941 65.3883 53.0346 64.5457 52.2116 63.5183C51.5776 62.7275 50.4214 62.6029 49.6334 63.237C48.8454 63.871 48.7166 65.0243 49.3521 65.8151C49.625 66.1538 49.9203 66.4814 50.2283 66.7921L42.5149 78.1392C34.6097 71.9274 29.5246 62.2838 29.5246 51.4713C29.5246 32.776 44.7346 17.5659 63.4271 17.5659C82.1196 17.5659 97.3325 32.776 97.3325 51.4713C97.3367 52.8486 97.2513 54.2021 97.0918 55.5275L97.0919 55.5278Z" fill="white"/>
<path d="M166.511 0C162.151 0 158.606 3.54813 158.606 7.90403C158.606 9.98254 159.421 11.8706 160.736 13.283L133.339 54.5392L114.36 42.7231L110.787 45.3713C107.779 21.9215 87.6894 3.73527 63.4319 3.73527C37.1056 3.73527 15.6867 25.1527 15.6867 51.4805C15.6867 67.0421 23.1694 80.8833 34.7264 89.605L11.4403 123.858C10.5277 123.488 9.5298 123.282 8.48704 123.282C4.13138 123.282 0.583008 126.828 0.583008 131.185C0.583008 135.548 4.13113 139.09 8.48704 139.09C12.8456 139.09 16.3911 135.545 16.3911 131.185C16.3911 129.196 15.6451 127.378 14.4273 125.988L37.736 91.7017C45.1599 96.4605 53.9805 99.222 63.4339 99.222C74.1008 99.222 83.9627 95.7061 91.9212 89.7715L95.4805 93.3266L93.0969 95.7088L128.613 131.221L130.993 128.843L135.134 132.986C136.23 134.077 137.658 134.723 139.154 134.8C139.255 134.805 139.353 134.805 139.451 134.805C140.901 134.805 142.242 134.261 143.241 133.259L145.218 131.287C147.373 129.125 147.253 125.489 144.939 123.178L140.799 119.038L143.178 116.659L107.662 81.1422L105.282 83.5216L101.723 79.9594C107.66 72.0052 111.176 62.143 111.176 51.4764C111.176 50.8704 111.164 50.2685 111.136 49.6708L114.541 47.1486L134.425 59.5273L163.791 15.315C164.642 15.6285 165.555 15.8063 166.513 15.8063C170.872 15.8063 174.417 12.261 174.417 7.90225C174.415 3.54946 170.868 0.00251502 166.509 0.00251502L166.511 0ZM8.48439 135.424C6.14837 135.424 4.24626 133.527 4.24626 131.186C4.24626 128.85 6.1484 126.953 8.48439 126.953C10.8218 126.953 12.7225 128.851 12.7225 131.186C12.7239 133.524 10.8218 135.424 8.48439 135.424ZM142.343 125.772C143.222 126.657 143.348 127.967 142.622 128.698L140.645 130.67C140.316 130.999 139.85 131.165 139.337 131.139C138.749 131.108 138.175 130.846 137.726 130.393L133.58 126.251L138.201 121.629L142.343 125.772ZM137.985 116.663L128.608 126.04L98.2788 95.7101L107.658 86.3295L137.985 116.663ZM102.686 86.1199L98.0649 90.7389L94.7826 87.4581C96.4216 86.0221 97.9697 84.481 99.4017 82.8391L102.686 86.1199ZM63.4296 95.5579C39.1259 95.5579 19.3499 75.7847 19.3499 51.4817C19.3499 27.1781 39.123 7.40203 63.4296 7.40203C87.7361 7.40203 107.509 27.1752 107.509 51.4817C107.509 75.7825 87.7347 95.5579 63.4296 95.5579ZM166.509 12.1425C164.172 12.1425 162.27 10.2404 162.27 7.90439C162.27 5.56697 164.172 3.66626 166.509 3.66626C168.845 3.66626 170.747 5.5684 170.747 7.90439C170.749 10.2404 168.845 12.1425 166.509 12.1425Z" fill="white"/>
<path d="M68.8169 50.2424C68.1843 49.4544 67.0338 49.3228 66.2402 49.9555C65.448 50.5881 65.3192 51.7415 65.9519 52.5323C66.7763 53.561 67.3627 54.7801 67.6552 56.0538C67.8498 56.9048 68.6042 57.4801 69.4384 57.4801C69.5742 57.4801 69.7113 57.4647 69.8499 57.4339C70.8367 57.2085 71.4553 56.226 71.23 55.2364C70.8157 53.4294 69.9829 51.6995 68.817 50.2422L68.8169 50.2424Z" fill="white"/>
<path d="M62.9086 65.9478C61.7161 66.5259 60.4326 66.8212 59.0958 66.824C58.0825 66.8254 57.2637 67.6484 57.2637 68.6603C57.2679 69.6723 58.0867 70.4897 59.0972 70.4897H59.1014C60.9952 70.4883 62.8132 70.0684 64.507 69.2454C65.4181 68.8059 65.7988 67.7086 65.3551 66.7988C64.917 65.8876 63.8197 65.5055 62.9085 65.9478H62.9086Z" fill="white"/>
<path d="M59.0316 49.2252H59.0764C60.4145 49.2252 61.6994 49.5163 62.8907 50.0944C63.1482 50.219 63.4183 50.2749 63.6857 50.2749C64.3673 50.2749 65.0238 49.8942 65.3387 49.2378C65.7782 48.3252 65.3947 47.2307 64.4821 46.7898C62.7885 45.9738 60.969 45.5581 59.0737 45.5581H59.0289C58.017 45.5581 57.1968 46.3783 57.1968 47.3917C57.1968 48.405 58.0198 49.2252 59.0317 49.2252L59.0316 49.2252Z" fill="white"/>
<path d="M50.2746 58.0216C50.2746 57.3693 50.3474 56.7199 50.4874 56.0887C50.7085 55.1019 50.0856 54.1207 49.0989 53.8996C48.1093 53.6784 47.131 54.3013 46.9098 55.2867C46.7097 56.1796 46.6089 57.1006 46.6089 58.0216C46.6089 58.9691 46.7153 59.9139 46.9266 60.8293C47.1226 61.6775 47.8784 62.2514 48.7126 62.2514C48.847 62.2514 48.9855 62.2374 49.1255 62.2038C50.1108 61.977 50.7267 60.9917 50.4999 60.0063C50.3516 59.3597 50.2746 58.692 50.2746 58.0216H50.2746Z" fill="white"/>
<path d="M53.6247 46.8101C51.9549 47.6247 50.4629 48.8242 49.3067 50.2841C48.6782 51.0791 48.8112 52.231 49.6034 52.8608C49.9407 53.1282 50.3424 53.2556 50.7413 53.2556C51.283 53.2556 51.8163 53.0162 52.1774 52.5627C52.9962 51.5312 54.0515 50.6802 55.23 50.1091C56.1412 49.6654 56.5177 48.5667 56.0754 47.6569C55.6331 46.7457 54.5344 46.3664 53.6246 46.8101L53.6247 46.8101Z" fill="white"/>
</svg>
