<svg width="141" height="142" viewBox="0 0 141 142" fill="none" xmlns="http://www.w3.org/2000/svg">
<path d="M110.018 78.8353C117.969 78.8353 125.446 75.7402 131.072 70.1182C136.696 64.4919 139.793 57.0164 139.793 49.0655C139.793 45.354 139.11 41.8001 137.863 38.521C137.855 38.4983 137.848 38.479 137.838 38.4597C136.262 34.3417 133.8 30.6619 130.683 27.6519C130.67 27.6338 130.661 27.6145 130.647 27.5986C130.628 27.5804 130.608 27.5725 130.587 27.5577C129.122 26.1548 127.513 24.9017 125.786 23.8213C125.744 23.7827 125.693 23.7509 125.641 23.7305C123.832 22.609 121.892 21.6772 119.85 20.961C119.834 20.9542 119.817 20.9496 119.801 20.9428C116.734 19.8725 113.444 19.2879 110.015 19.2879C107.948 19.2879 105.888 19.5059 103.879 19.9292C97.0663 8.59929 84.6546 1 70.498 1C56.3414 1 43.9288 8.59697 37.1201 19.9292C35.1111 19.5059 33.0486 19.2879 30.9818 19.2879C14.5634 19.2879 1.20703 32.6452 1.20703 49.0656C1.20703 52.5853 1.82223 55.9632 2.94932 59.1005C2.95613 59.122 2.96067 59.1413 2.97089 59.1606C3.70298 61.1878 4.6496 63.1118 5.78466 64.9061C5.80282 64.9515 5.83006 64.9923 5.86297 65.0332C7.04228 66.8799 8.41909 68.5915 9.96496 70.133C9.97744 70.1512 9.98653 70.1716 10.0024 70.1898C10.0217 70.2079 10.0444 70.2159 10.066 70.2306C11.4984 71.6449 13.0748 72.9173 14.7686 74.0217C14.7686 74.0217 14.7697 74.0228 14.7697 74.0251C14.8174 74.0705 14.8719 74.1045 14.9286 74.1272C16.7152 75.2725 18.6334 76.2361 20.6526 76.9864C20.6571 76.9898 20.6639 76.9909 20.6707 76.9932C23.8862 78.1827 27.3605 78.8354 30.9837 78.8354H52.7945V100.493H38.6905C38.4589 98.1299 36.4601 96.274 34.0346 96.274C31.4558 96.274 29.3559 98.3715 29.3559 100.953C29.3559 103.534 31.4546 105.631 34.0346 105.631C36.4579 105.631 38.4557 103.781 38.6905 101.418H53.2576C53.513 101.418 53.7219 101.212 53.7219 100.956V78.8366H59.6786V111.407L48.8708 122.211C48.0422 121.469 46.9537 121.015 45.7585 121.015C43.1797 121.015 41.0797 123.114 41.0797 125.694C41.0797 128.272 43.1784 130.373 45.7585 130.373C48.3373 130.373 50.4373 128.272 50.4373 125.694C50.4373 124.644 50.0843 123.678 49.4963 122.894L60.4688 111.928C60.5551 111.841 60.6039 111.723 60.6039 111.601V78.8392H68.5661V100.516C66.203 100.752 64.3517 102.749 64.3517 105.172C64.3517 107.751 66.4504 109.851 69.0305 109.851C71.6093 109.851 73.7101 107.752 73.7101 105.172C73.7101 102.748 71.8566 100.748 69.491 100.516V78.8392H71.9688V78.8381H78.0786V123.371C78.0786 123.495 78.1274 123.612 78.2137 123.7L87.0851 132.576C86.4835 133.364 86.1181 134.345 86.1181 135.41C86.1181 137.989 88.2168 140.09 90.7968 140.09C93.3779 140.09 95.4756 137.989 95.4756 135.41C95.4756 132.832 93.378 130.731 90.7968 130.731C89.6175 130.731 88.5404 131.175 87.7162 131.898L79.0049 123.18V78.8364H84.6937V110.811C84.6937 111.066 84.9025 111.275 85.1579 111.275H102.244C102.266 111.275 102.288 111.271 102.311 111.267C102.543 113.631 104.541 115.488 106.965 115.488C109.546 115.488 111.645 113.39 111.645 110.809C111.645 108.23 109.544 106.13 106.965 106.13C104.539 106.13 102.537 107.988 102.311 110.356C102.288 110.352 102.265 110.349 102.239 110.349L85.6232 110.345V78.833L110.018 78.8353ZM34.037 104.707C31.9667 104.707 30.2834 103.023 30.2834 100.954C30.2834 98.8835 31.9678 97.2014 34.037 97.2014C36.1073 97.2014 37.7906 98.8836 37.7906 100.954C37.7906 103.023 36.1073 104.707 34.037 104.707ZM49.5122 125.692C49.5122 127.762 47.8278 129.446 45.7586 129.446C43.6883 129.446 42.0062 127.764 42.0062 125.692C42.0062 123.624 43.6906 121.939 45.7586 121.939C47.8256 121.937 49.5122 123.624 49.5122 125.692ZM90.8023 131.657C92.8704 131.657 94.5547 133.339 94.5547 135.41C94.5547 137.478 92.8726 139.163 90.8023 139.163C88.732 139.163 87.0487 137.478 87.0487 135.41C87.0487 133.341 88.7297 131.657 90.8023 131.657ZM106.968 107.052C109.038 107.052 110.721 108.737 110.721 110.805C110.721 112.875 109.039 114.558 106.968 114.558C104.9 114.558 103.215 112.876 103.215 110.805C103.216 108.737 104.901 107.052 106.968 107.052ZM118.804 21.5839L110.48 29.9073C110.301 30.0878 110.301 30.3806 110.48 30.5611C110.571 30.6519 110.69 30.6962 110.809 30.6962C110.926 30.6962 111.047 30.6508 111.136 30.5611L119.782 21.9155C121.515 22.5409 123.171 23.3275 124.733 24.2571L109.418 39.5722C109.377 34.8617 108.495 30.3512 106.915 26.1786L112.748 20.3457C114.838 20.5432 116.865 20.9643 118.804 21.584L118.804 21.5839ZM110.019 20.2162C110.526 20.2162 111.028 20.2287 111.53 20.2548L106.544 25.241C105.914 23.6996 105.19 22.208 104.376 20.7746C106.225 20.4035 108.12 20.2162 110.019 20.2162L110.019 20.2162ZM23.2223 21.2786L3.20021 41.3006C5.90728 31.6244 13.5451 23.9855 23.2223 21.2786ZM2.2977 52.1139L3.49177 50.9199C3.67224 50.7394 3.67224 50.4466 3.49177 50.2661C3.3113 50.0856 3.01846 50.0856 2.83799 50.2661L2.1967 50.9074C2.15811 50.2967 2.1354 49.6849 2.1354 49.0675C2.1354 46.9325 2.37149 44.853 2.81188 42.8499C2.91063 42.8385 3.00711 42.801 3.08316 42.725L24.9553 20.8529C26.9019 20.4374 28.9178 20.2184 30.9858 20.2184C31.5976 20.2184 32.2116 20.2399 32.8211 20.2785L23.1913 29.9083C23.0109 30.0877 23.0109 30.3817 23.1913 30.5621C23.2821 30.6529 23.4002 30.6972 23.5182 30.6972C23.6374 30.6972 23.7555 30.6518 23.8451 30.5621L34.0276 20.3797C34.9016 20.4727 35.7699 20.6044 36.628 20.7747C35.2738 23.1616 34.1626 25.7019 33.3329 28.367L3.58427 58.1127C2.95545 56.1933 2.51619 54.1865 2.296 52.115L2.2977 52.1139ZM6.81869 64.7979L8.50423 63.1124C8.6847 62.9319 8.6847 62.6391 8.50423 62.4586C8.32376 62.2781 8.02865 62.2781 7.85045 62.4586L6.31132 63.9966C5.36923 62.4473 4.5713 60.8026 3.93114 59.0807L32.8168 30.1951C32.0143 33.3051 31.5864 36.5627 31.5864 39.919C31.5864 42.4286 31.827 44.8802 32.2833 47.2583L10.3452 69.1964C9.0331 67.8491 7.85039 66.3781 6.81854 64.798L6.81869 64.7979ZM15.8444 73.6069L19.8647 69.5842C20.0452 69.4037 20.0452 69.1109 19.8647 68.9304C19.6843 68.7499 19.3914 68.7499 19.2109 68.9304L15.0465 73.096C13.6016 72.1347 12.2475 71.0473 11.0012 69.8486L32.5057 48.3418C32.9325 50.2656 33.5 52.1352 34.1992 53.9399L24.3515 63.7908C24.171 63.9713 24.171 64.2641 24.3515 64.4446C24.4411 64.5354 24.5603 64.5797 24.6784 64.5797C24.7975 64.5797 24.9156 64.5343 25.0075 64.4446L34.576 54.8717C35.2786 56.5528 36.097 58.1747 37.0186 59.7275L20.724 76.0221C19.0146 75.3694 17.3824 74.559 15.8444 73.6067L15.8444 73.6069ZM30.9869 77.9099C30.2616 77.9099 29.5408 77.8804 28.828 77.8282L37.7744 68.8783C37.9549 68.6979 37.9549 68.405 37.7744 68.2245C37.594 68.0441 37.2988 68.0441 37.1184 68.2245L27.6339 77.7123C25.5772 77.475 23.5874 77.0176 21.683 76.3684L37.5133 60.539C39.5246 63.7466 41.9898 66.6398 44.8197 69.1288L36.0377 77.9096L30.9869 77.9099ZM37.3478 77.9099L45.5247 69.7365C46.973 70.9521 48.5089 72.0633 50.125 73.0589L45.274 77.9099H37.3478ZM46.5836 77.9099L50.9433 73.549C52.5074 74.4616 54.1396 75.2686 55.8284 75.9587L53.8772 77.9076H46.5833L46.5836 77.9099ZM55.1871 77.9099L56.7671 76.3288C58.4776 76.9769 60.2449 77.507 62.0586 77.9099H55.1871ZM72.7881 105.169C72.7881 107.237 71.1037 108.923 69.0322 108.923C66.9641 108.923 65.2786 107.238 65.2786 105.169C65.2786 103.099 66.963 101.415 69.0322 101.415C71.1025 101.414 72.7881 103.099 72.7881 105.169ZM70.5975 77.9076H70.409C49.5028 77.8577 32.5099 60.8331 32.5099 39.9155C32.5099 18.9671 49.5513 1.92339 70.502 1.92339C91.4504 1.92339 108.494 18.9671 108.494 39.9155C108.494 40.1731 108.491 40.4285 108.484 40.685V40.7043C108.063 61.2599 91.2371 77.8567 70.5964 77.909L70.5975 77.9076ZM79.6845 77.9076H78.9558C79.2747 77.8361 79.5937 77.7612 79.9081 77.6817L79.6845 77.9076ZM80.992 77.9076L81.7151 77.1868C94.1744 73.4309 104.019 63.5878 107.773 51.1273L116.178 42.7223C116.359 42.5418 116.359 42.2467 116.178 42.0685C115.998 41.888 115.705 41.888 115.525 42.0685L108.272 49.3214C108.947 46.6109 109.339 43.7892 109.411 40.889L125.545 24.7557C127.008 25.6933 128.382 26.7624 129.65 27.9418L120.232 37.3615C120.051 37.542 120.051 37.8348 120.232 38.0153C120.322 38.1061 120.44 38.1504 120.559 38.1504C120.678 38.1504 120.796 38.105 120.885 38.0153L130.319 28.5819C133.148 31.3877 135.403 34.7714 136.885 38.5453L133.362 42.0685C133.183 42.249 133.183 42.5418 133.362 42.7223C133.453 42.8119 133.572 42.8573 133.689 42.8573C133.806 42.8573 133.926 42.8119 134.016 42.7223L137.238 39.4998C137.902 41.3829 138.378 43.3534 138.635 45.3906L137.584 46.4439C137.404 46.6244 137.404 46.9195 137.584 47.0977C137.675 47.1885 137.793 47.2327 137.911 47.2327C138.03 47.2327 138.148 47.1873 138.238 47.0977L138.759 46.5755C138.831 47.3962 138.868 48.2259 138.868 49.0636C138.868 50.8115 138.711 52.5344 138.411 54.22L128.684 63.944C128.505 64.1244 128.505 64.4195 128.684 64.5978C128.775 64.6886 128.894 64.7328 129.011 64.7328C129.13 64.7328 129.249 64.6874 129.338 64.5978L138.059 55.876C136.828 60.9735 134.222 65.6543 130.415 69.4602C126.613 73.2591 121.934 75.8687 116.838 77.0966L125.059 68.8779C125.239 68.6974 125.239 68.4045 125.059 68.2241C124.878 68.0436 124.583 68.0436 124.405 68.2241L115.182 77.4474C113.494 77.7516 111.766 77.9059 110.018 77.9059H107.427L134.418 50.9168C134.598 50.7364 134.598 50.4435 134.418 50.2631C134.237 50.0826 133.942 50.0826 133.764 50.2631L106.121 77.9071H98.8294L107.153 69.5837C107.332 69.4043 107.332 69.1104 107.153 68.9299C106.972 68.7494 106.679 68.7494 106.499 68.9299L97.5198 77.9071H90.227L133.569 34.5656C133.749 34.3851 133.749 34.0923 133.569 33.9118C133.386 33.7313 133.093 33.7313 132.915 33.9118L88.9195 77.9071H80.9912L80.992 77.9076Z" fill="white" stroke="white" stroke-width="2"/>
<path d="M19.189 33.9131L6.65586 46.4463C6.47539 46.6268 6.47539 46.9219 6.65586 47.1001C6.74666 47.1909 6.86471 47.2352 6.98275 47.2352C7.10193 47.2352 7.21998 47.1898 7.30964 47.1001L19.8428 34.5692C20.0233 34.3888 20.0233 34.0937 19.8428 33.9132C19.6601 33.7327 19.3672 33.7327 19.189 33.9132V33.9131Z" fill="white" stroke="white" stroke-width="2"/>
<path d="M28.237 42.0693L11.8482 58.4581C11.6678 58.6385 11.6678 58.9336 11.8482 59.1119C11.939 59.2027 12.0571 59.2469 12.1751 59.2469C12.2943 59.2469 12.4124 59.2015 12.5043 59.1119L28.8954 42.7231C29.0747 42.5426 29.0747 42.2475 28.8954 42.0693C28.7115 41.8877 28.4187 41.8877 28.2371 42.0693H28.237Z" fill="white" stroke="white" stroke-width="2"/>
<path d="M128.531 46.8985L111.639 63.7903C111.46 63.9707 111.46 64.2659 111.639 64.4441C111.73 64.5349 111.849 64.5791 111.968 64.5791C112.085 64.5791 112.204 64.5337 112.294 64.4441L129.186 47.5523C129.366 47.3718 129.366 47.079 129.186 46.8985C129.004 46.7181 128.712 46.7181 128.531 46.8985Z" fill="white" stroke="white" stroke-width="2"/>
</svg>
