<svg width="131" height="141" viewBox="0 0 131 141" fill="none" xmlns="http://www.w3.org/2000/svg">
<path d="M130.266 57.0677C130.266 56.4481 129.764 55.9488 129.146 55.9488L107.745 55.95V17.8249C107.745 10.9977 102.191 5.44237 95.3612 5.44237H95.3575H28.9691L27.4957 3.96648C27.0749 3.54569 26.3314 3.54569 25.9131 3.96648L24.6592 5.22032L24.4605 5.31847C23.5268 4.80198 22.5417 4.39343 21.5197 4.10022L21.4473 3.89288V2.1201C21.4473 1.50053 20.9456 1 20.3285 1H14.7845C14.1649 1 13.6644 1.50179 13.6644 2.1201V3.89288L13.592 4.10022C12.5737 4.39343 11.5886 4.80075 10.6512 5.31847L10.4537 5.22155L9.19989 3.96771C8.9901 3.75669 8.70548 3.63891 8.40859 3.63891C8.11169 3.63891 7.82583 3.75669 7.61729 3.96771L3.69988 7.88638C3.26191 8.32435 3.26191 9.03101 3.69988 9.46901L4.95249 10.7228L5.05064 10.9228C4.53537 11.8528 4.12682 12.8379 3.83238 13.8623L3.62627 13.9347H1.8535C1.23393 13.9347 0.733398 14.4365 0.733398 15.0548V20.5966C0.733398 21.2162 1.23519 21.7155 1.8535 21.7155H3.62627L3.83361 21.7879C4.12683 22.8074 4.53537 23.7925 5.05186 24.7274L4.95372 24.9274L3.70111 26.1812C3.26436 26.6192 3.26436 27.3258 3.70111 27.7638L5.17699 29.2397V138.97C5.17699 139.589 5.67878 140.09 6.29709 140.09H95.3645C95.9841 140.09 96.4846 139.588 96.4846 138.97V69.4534H117.889C124.714 69.4485 130.267 63.8972 130.267 57.0683L130.266 57.0677ZM95.3603 7.67999H95.364C100.957 7.68122 105.505 12.2315 105.505 17.8236V55.9455H51.3372C50.7176 55.9455 50.2171 56.4473 50.2171 57.0644V57.0681C50.2171 62.6614 45.6694 67.2116 40.0773 67.2116C34.484 67.2116 29.9338 62.6614 29.9338 57.0668V57.0656V29.2395L31.4097 27.7636C31.8476 27.3257 31.8476 26.6165 31.4097 26.181L30.157 24.9272L30.0589 24.7284C30.5754 23.7923 30.9839 22.8084 31.2771 21.7877L31.4869 21.7153H33.2597C33.8793 21.7153 34.3786 21.2135 34.3786 20.5964V15.0546C34.3786 14.435 33.8768 13.9345 33.2597 13.9345H31.4869L31.2759 13.8621C30.9827 12.8426 30.5754 11.8575 30.0577 10.9226L30.1558 10.7226L31.4084 9.4688C31.8464 9.03083 31.8464 8.32417 31.4084 7.88617L31.2048 7.68251L95.3603 7.67999ZM4.17293 19.5337C4.05638 19.4944 3.93369 19.4736 3.80854 19.4736H2.96937V16.1708H3.80854C3.93122 16.1708 4.05514 16.1499 4.17293 16.1107L5.12249 15.7855C5.48439 15.6604 5.7592 15.3598 5.84878 14.9893C6.13708 13.7895 6.6082 12.6461 7.24737 11.597C7.25473 11.586 7.25964 11.5737 7.267 11.5639C7.28786 11.5283 7.31116 11.4878 7.32466 11.4584C7.47556 11.1468 7.47556 10.7824 7.32466 10.4696L6.8793 9.56539C6.82532 9.4562 6.75416 9.3556 6.66706 9.26972L6.07451 8.67471L8.41041 6.3388L9.00542 6.93381C9.09375 7.02214 9.19312 7.0933 9.30477 7.14851L10.2053 7.59015C10.5488 7.75946 10.9549 7.73983 11.28 7.54108C12.3584 6.88474 13.5153 6.40503 14.7225 6.11671C15.0955 6.02715 15.3985 5.75232 15.5212 5.38797L15.8463 4.4347C15.8856 4.31815 15.9065 4.19669 15.9065 4.07279V3.2324H19.2092V4.07279C19.2092 4.19548 19.2289 4.31939 19.2693 4.4347L19.5945 5.38671C19.7196 5.7511 20.0202 6.02343 20.3931 6.113C21.6028 6.40499 22.761 6.88345 23.8319 7.53738C23.843 7.54474 23.8552 7.54596 23.865 7.55333C23.9018 7.5705 23.9386 7.59013 23.9779 7.60485C24.2699 7.72999 24.5987 7.73121 24.8894 7.59626C24.8968 7.59504 24.9029 7.59258 24.9103 7.5889L25.8108 7.1497C25.9212 7.09572 26.023 7.02334 26.1114 6.93501L26.7064 6.34L29.0398 8.67591L28.4448 9.27091C28.3565 9.35925 28.2853 9.45862 28.2301 9.57026L27.7885 10.4744C27.6192 10.818 27.6413 11.224 27.84 11.5492C28.4964 12.6214 28.9748 13.7796 29.2631 14.9854C29.3527 15.3584 29.6275 15.6614 29.9894 15.7853L30.9145 16.1018C31.0396 16.1472 31.1709 16.1718 31.3046 16.1718H32.145V19.4745H31.3046C31.1819 19.4745 31.0605 19.4954 30.9427 19.5347L29.9894 19.8598C29.625 19.9825 29.3515 20.2855 29.2607 20.6585C28.9724 21.8669 28.4927 23.0226 27.8376 24.0972C27.8253 24.1169 27.8204 24.1365 27.8093 24.1574C27.7971 24.1843 27.7848 24.2101 27.7725 24.2383C27.6437 24.534 27.6425 24.8677 27.7811 25.1634V25.1646C27.7824 25.1658 27.7824 25.1695 27.7824 25.1719L28.224 26.0761C28.278 26.1865 28.3504 26.2884 28.4387 26.3755L29.0337 26.9705L26.6978 29.3039L26.1052 28.7114C26.0169 28.623 25.9175 28.5519 25.8059 28.4967L24.9017 28.055C24.5607 27.8882 24.1546 27.9078 23.8294 28.1041C23.2896 28.4329 22.7314 28.7163 22.1757 28.947C21.5843 29.1911 20.9844 29.3861 20.3906 29.5297C20.0177 29.6193 19.7146 29.8941 19.5907 30.2584L19.2656 31.2117C19.2251 31.3283 19.2055 31.451 19.2055 31.5736V32.4128H15.9005V31.5736C15.9005 31.4509 15.8809 31.327 15.8404 31.2117L15.5153 30.2622C15.3926 29.9002 15.092 29.6267 14.7203 29.5359C14.1559 29.3985 13.61 29.2242 13.0947 29.0169C12.4666 28.7654 11.8544 28.4612 11.2777 28.1078C10.9502 27.9091 10.5466 27.8895 10.203 28.0588L9.29884 28.5004C9.18843 28.5544 9.0866 28.6268 8.99949 28.7151L8.40449 29.3101L6.06858 26.9742L6.66114 26.3817C6.74702 26.2958 6.81941 26.1952 6.87338 26.0848L7.31874 25.1806C7.46596 24.8812 7.46351 24.5365 7.32978 24.2359C7.32119 24.2151 7.31015 24.1942 7.30156 24.1721C7.28929 24.1488 7.28439 24.1243 7.26966 24.1022C6.61577 23.0312 6.13483 21.8718 5.84284 20.6597C5.75328 20.2892 5.47845 19.9874 5.11655 19.8647L4.17293 19.5337ZM94.2391 137.847H7.411V31.4778L7.61343 31.6802C8.0514 32.1182 8.76051 32.1182 9.19606 31.6802L10.4499 30.4276L10.6499 30.3295C11.17 30.6178 11.7123 30.873 12.2607 31.0913C12.6864 31.2631 13.1318 31.4165 13.5882 31.5489L13.6605 31.7563V33.529C13.6605 34.1486 14.1623 34.6492 14.7807 34.6492H20.3224C20.942 34.6492 21.4425 34.1474 21.4425 33.529V31.7563L21.5149 31.5465C22.0228 31.4005 22.5295 31.2226 23.0313 31.0153C23.5098 30.8165 23.9858 30.5859 24.4557 30.327L24.6556 30.4252L25.9083 31.679C26.3462 32.117 27.0553 32.117 27.4909 31.679L27.6933 31.4766V57.0624V57.0636C27.6933 63.8909 33.2461 69.4462 40.0734 69.4474H94.2381L94.2418 137.849L94.2391 137.847ZM117.881 67.2097H47.1652C50.074 65.1694 52.0688 61.9122 52.4051 58.1839H106.598C106.607 58.1839 106.615 58.1851 106.625 58.1851H127.966C127.403 63.2545 123.095 67.2096 117.881 67.2096L117.881 67.2097Z" fill="white" stroke="white" stroke-width="0.5"/>
<path d="M22.1535 124.514H31.1354C31.7549 124.514 32.2555 124.013 32.2555 123.394V109.904C32.2555 109.284 31.7537 108.785 31.1354 108.785H22.1535C21.534 108.785 21.0347 109.284 21.0347 109.904V123.394C21.0347 124.013 21.534 124.514 22.1535 124.514ZM23.2724 111.024H30.0152V122.275H23.2724V111.024Z" fill="white" stroke="white" stroke-width="0.5"/>
<path d="M47.2574 124.514C47.877 124.514 48.3775 124.012 48.3775 123.394V107.271C48.3775 106.651 47.8757 106.151 47.2574 106.151H38.2756C37.656 106.151 37.1567 106.653 37.1567 107.271V123.394C37.1567 124.014 37.6585 124.514 38.2756 124.514H47.2574ZM39.3947 108.391H46.1375V122.276H39.3947V108.391Z" fill="white" stroke="white" stroke-width="0.5"/>
<path d="M63.3817 124.515C64.0013 124.515 64.5018 124.013 64.5018 123.394V102.995C64.5018 102.375 64 101.875 63.3817 101.875H54.3999C53.7803 101.875 53.2798 102.376 53.2798 102.995V123.394C53.2798 124.014 53.7816 124.515 54.3999 124.515H63.3817ZM55.5189 104.115H62.2617V122.276H55.5189V104.115Z" fill="white" stroke="white" stroke-width="0.5"/>
<path d="M70.5205 124.514H79.5023C80.1219 124.514 80.6224 124.013 80.6224 123.394V93.7807C80.6224 93.1612 80.1206 92.6606 79.5023 92.6606H70.5205C69.9009 92.6606 69.4004 93.1624 69.4004 93.7807V123.394C69.4004 124.013 69.9034 124.514 70.5205 124.514ZM71.6394 94.9008H78.3847V122.275H71.6394V94.9008Z" fill="white" stroke="white" stroke-width="0.5"/>
<path d="M60.3318 90.5008L62.6273 90.1573C44.995 103.073 22.4576 101.888 22.2189 101.875C21.5993 101.836 21.0718 102.308 21.0338 102.925C20.997 103.545 21.4668 104.073 22.084 104.11C22.1698 104.118 22.8912 104.158 24.1254 104.158C26.7042 104.158 31.5171 103.975 37.4169 102.902C44.8968 101.542 55.4688 98.436 64.7474 91.366L64.1303 93.9607C63.9855 94.5619 64.3573 95.1655 64.9608 95.3103C65.0467 95.3311 65.1351 95.3422 65.2209 95.3422C65.7276 95.3422 66.1865 94.9962 66.3091 94.4822L67.6881 88.6976C67.774 88.3357 67.6758 87.9553 67.4256 87.6805C67.1728 87.4082 66.8035 87.2781 66.4355 87.3309L60.0033 88.289C59.3911 88.3811 58.9703 88.9503 59.0611 89.5625C59.1494 90.1686 59.7175 90.593 60.3309 90.501L60.3318 90.5008Z" fill="white" stroke="white" stroke-width="0.5"/>
<path d="M79.5061 129.543H22.1535C21.534 129.543 21.0347 130.045 21.0347 130.663C21.0347 131.283 21.5365 131.782 22.1535 131.782H79.5061C80.1256 131.782 80.6262 131.283 80.6262 130.663C80.6262 130.045 80.1232 129.543 79.5061 129.543Z" fill="white" stroke="white" stroke-width="0.5"/>
<path d="M16.7702 27.0049H16.7739H16.7825C16.7874 27.0049 16.7911 27.0061 16.796 27.0061H16.8083C17.0389 27.0294 17.2855 27.0392 17.5554 27.0392C22.6405 27.0392 26.775 22.9023 26.775 17.8197C26.775 12.737 22.638 8.6001 17.5554 8.6001C15.7777 8.6001 14.0541 9.10679 12.5695 10.0674C12.5683 10.0674 12.5659 10.0686 12.5646 10.0686C9.9171 11.7752 8.33691 14.6717 8.33691 17.8199C8.33691 22.58 12.0382 26.6076 16.7704 27.0052L16.7702 27.0049ZM13.778 11.9552C13.778 11.9552 13.7792 11.954 13.7817 11.954C14.9042 11.2252 16.2084 10.8424 17.5577 10.8424C21.4064 10.8424 24.5386 13.9746 24.5386 17.8233C24.5386 21.6719 21.4065 24.8042 17.5577 24.8042C17.348 24.8042 17.1652 24.7956 17.002 24.7796H16.9897C16.986 24.7796 16.9824 24.7784 16.9775 24.7784C13.3876 24.4876 10.577 21.4329 10.577 17.8246C10.5758 15.4396 11.7707 13.246 13.7777 11.9552L13.778 11.9552Z" fill="white" stroke="white" stroke-width="0.5"/>
<path d="M21.3968 96.8984C21.3968 97.518 21.8985 98.0185 22.5169 98.0185C23.1364 98.0185 23.637 97.5167 23.637 96.8984V94.4717C26.3655 93.9478 28.4328 91.5445 28.4328 88.6677C28.4328 85.4067 25.7792 82.7531 22.5182 82.7531H21.7895C19.7628 82.7531 18.1152 81.103 18.1152 79.0775C18.1152 77.0508 19.7628 75.4019 21.7895 75.4019H26.5841C27.2037 75.4019 27.7042 74.9001 27.7042 74.2818C27.7042 73.6622 27.2024 73.1617 26.5841 73.1617H23.636V70.8467C23.636 70.2271 23.1342 69.7266 22.5159 69.7266C21.8964 69.7266 21.3958 70.2283 21.3958 70.8467V73.1826C18.3177 73.385 15.8726 75.9479 15.8726 79.0777C15.8726 82.3387 18.5262 84.991 21.7871 84.991H22.5159C24.5426 84.991 26.1915 86.6411 26.1915 88.6691C26.1915 90.6934 24.5438 92.3434 22.5171 92.3434H22.5159H22.5122H17.7214C17.1018 92.3434 16.6013 92.8452 16.6013 93.4635C16.6013 94.0831 17.1031 94.5836 17.7214 94.5836H21.3957L21.3968 96.8984Z" fill="white" stroke="white" stroke-width="0.5"/>
<path d="M40.3664 22.6516H96.6229C97.2424 22.6516 97.743 22.1498 97.743 21.5327C97.743 20.9156 97.2412 20.4126 96.6229 20.4126H40.3664C39.7469 20.4126 39.2476 20.9144 39.2476 21.5327C39.2488 22.1523 39.7481 22.6516 40.3664 22.6516Z" fill="white" stroke="white" stroke-width="0.5"/>
<path d="M40.3664 30.2585H96.6229C97.2424 30.2585 97.743 29.7567 97.743 29.1396C97.743 28.5225 97.2412 28.0195 96.6229 28.0195H40.3664C39.7469 28.0195 39.2476 28.5213 39.2476 29.1396C39.2488 29.7592 39.7481 30.2585 40.3664 30.2585Z" fill="white" stroke="white" stroke-width="0.5"/>
<path d="M40.3664 37.8591H96.6229C97.2424 37.8591 97.743 37.3573 97.743 36.7402C97.743 36.1231 97.2412 35.6201 96.6229 35.6201H40.3664C39.7469 35.6201 39.2476 36.1219 39.2476 36.7402C39.2488 37.3598 39.7481 37.8591 40.3664 37.8591Z" fill="white" stroke="white" stroke-width="0.5"/>
<path d="M40.3664 45.466H96.6229C97.2424 45.466 97.743 44.9642 97.743 44.3472C97.743 43.7301 97.2412 43.2271 96.6229 43.2271H40.3664C39.7469 43.2271 39.2476 43.7288 39.2476 44.3472C39.2488 44.9667 39.7481 45.466 40.3664 45.466Z" fill="white" stroke="white" stroke-width="0.5"/>
</svg>
