<svg width="127" height="94" viewBox="0 0 127 94" fill="none" xmlns="http://www.w3.org/2000/svg">
<g filter="url(#filter0_d_27_1635)">
<path d="M49.9468 48.9134H47.6528V38.2283L57.6424 32.4418L57.6456 35.275L49.9468 39.735V48.9134Z" fill="white" stroke="white" stroke-width="0.512097"/>
<path d="M71.1164 36.5617V39.3974L63.418 34.9375L63.4211 32.1039L71.1164 36.5617Z" fill="white" stroke="white" stroke-width="0.512097"/>
<path d="M48.7695 55.4677C46.6289 55.4677 44.8877 53.5667 44.8877 51.2294C44.8877 48.8921 46.6289 46.9915 48.7695 46.9915C50.91 46.9915 52.6512 48.8924 52.6512 51.2294C52.6512 53.5664 50.91 55.4677 48.7695 55.4677ZM48.7695 49.4963C47.8939 49.4963 47.1817 50.2739 47.1817 51.2294C47.1817 52.1849 47.8939 52.9629 48.7695 52.9629C49.645 52.9629 50.3573 52.1849 50.3573 51.2294C50.3573 50.2739 49.645 49.4963 48.7695 49.4963Z" fill="white" stroke="white" stroke-width="0.512097"/>
<path d="M60.3804 50.1081C58.2398 50.1081 56.4985 48.2071 56.4985 45.8698C56.4985 43.5325 58.2398 41.6318 60.3804 41.6318C62.521 41.6318 64.2626 43.5328 64.2626 45.8698C64.2626 48.2067 62.521 50.1081 60.3804 50.1081ZM60.3804 44.1367C59.5048 44.1367 58.7926 44.9143 58.7926 45.8698C58.7926 46.8253 59.5048 47.6032 60.3804 47.6032C61.256 47.6032 61.9682 46.8253 61.9682 45.8698C61.9682 44.9143 61.256 44.1367 60.3804 44.1367Z" fill="white" stroke="white" stroke-width="0.512097"/>
<path d="M91.6655 63.2602H34.8228V23.3516L48.2427 15.5468L61.6627 23.3516V43.0087H59.3687V24.8551L48.2427 18.385L37.1168 24.8551V60.7557H89.3711V6.53544L75.102 20.226V50.9421H72.8077V19.0925L91.6655 1V63.2602Z" fill="white" stroke="white" stroke-width="0.512097"/>
<path d="M73.8514 57.552C71.7108 57.552 69.9692 55.6511 69.9692 53.3137C69.9692 50.9764 71.7105 49.0758 73.8514 49.0758C75.9922 49.0758 77.7335 50.9768 77.7335 53.3137C77.7335 55.6507 75.9922 57.552 73.8514 57.552ZM73.8514 51.5806C72.9758 51.5806 72.2636 52.3582 72.2636 53.3137C72.2636 54.2693 72.9761 55.0472 73.8514 55.0472C74.7266 55.0472 75.4391 54.2693 75.4391 53.3137C75.4391 52.3582 74.7266 51.5806 73.8514 51.5806Z" fill="white" stroke="white" stroke-width="0.512097"/>
<path d="M29.1378 83.3689H25.8409L17.7507 70.2602H17.6606L17.7169 70.9916C17.8219 72.3868 17.8744 73.6621 17.8744 74.8173V83.3689H15.4327V66.9183H18.6958L26.7636 79.9595H26.8311C26.8161 79.787 26.7861 79.1606 26.7411 78.0804C26.6961 76.9927 26.6736 76.145 26.6736 75.5374V66.9183H29.1378V83.3689ZM43.8925 77.124C43.8925 79.1569 43.3711 80.7434 42.3284 81.8836C41.2858 83.0238 39.8342 83.5939 37.9739 83.5939C36.8112 83.5939 35.7835 83.3314 34.8908 82.8063C33.9981 82.2812 33.3117 81.5273 32.8317 80.5446C32.3516 79.5619 32.1115 78.4217 32.1115 77.124C32.1115 75.1061 32.6291 73.5308 33.6643 72.3981C34.6995 71.2654 36.1585 70.699 38.0414 70.699C39.8417 70.699 41.267 71.2804 42.3172 72.4431C43.3674 73.5983 43.8925 75.1586 43.8925 77.124ZM34.8345 77.124C34.8345 79.997 35.896 81.4335 38.0189 81.4335C40.1193 81.4335 41.1695 79.997 41.1695 77.124C41.1695 74.2809 40.1118 72.8594 37.9964 72.8594C36.8862 72.8594 36.0798 73.227 35.5772 73.9621C35.0821 74.6973 34.8345 75.7512 34.8345 77.124ZM56.363 78.9018C56.363 80.3646 55.8341 81.5123 54.7764 82.345C53.7187 83.1776 52.2597 83.5939 50.3994 83.5939C48.539 83.5939 47.0162 83.3051 45.831 82.7275V80.1845C46.5811 80.5371 47.3763 80.8147 48.2165 81.0172C49.0641 81.2197 49.8518 81.321 50.5794 81.321C51.6446 81.321 52.4285 81.1185 52.9311 80.7134C53.4412 80.3083 53.6962 79.7645 53.6962 79.0818C53.6962 78.4667 53.4637 77.9454 52.9986 77.5178C52.5335 77.0902 51.5733 76.5839 50.1181 75.9988C48.6178 75.3911 47.5601 74.6973 46.945 73.9171C46.3299 73.137 46.0223 72.1993 46.0223 71.1041C46.0223 69.7313 46.5099 68.6511 47.4851 67.8635C48.4603 67.0758 49.7693 66.682 51.4121 66.682C52.9874 66.682 54.5552 67.0271 56.1155 67.7172L55.2603 69.9114C53.7975 69.2962 52.4923 68.9887 51.3446 68.9887C50.4744 68.9887 49.8143 69.18 49.3642 69.5625C48.9141 69.9376 48.689 70.4365 48.689 71.0591C48.689 71.4867 48.7791 71.8542 48.9591 72.1618C49.1391 72.4618 49.4354 72.7469 49.848 73.0169C50.2606 73.287 51.0032 73.6433 52.0759 74.0859C53.2837 74.5885 54.1688 75.0573 54.7314 75.4924C55.294 75.9275 55.7066 76.4188 55.9692 76.9664C56.2317 77.514 56.363 78.1592 56.363 78.9018ZM63.5563 81.456C64.2014 81.456 64.8465 81.3548 65.4916 81.1522V83.1439C65.1991 83.2714 64.8202 83.3764 64.3552 83.4589C63.8976 83.5489 63.4212 83.5939 62.9261 83.5939C60.4207 83.5939 59.1679 82.2737 59.1679 79.6332V72.9269H57.4689V71.7567L59.2917 70.789L60.1919 68.156H61.8234V70.924H65.3679V72.9269H61.8234V79.5882C61.8234 80.2258 61.981 80.6984 62.296 81.0059C62.6186 81.306 63.0387 81.456 63.5563 81.456ZM73.0787 83.5939C71.1433 83.5939 69.6281 83.0313 68.5328 81.9061C67.4451 80.7734 66.9013 79.2169 66.9013 77.2365C66.9013 75.2036 67.4076 73.6058 68.4203 72.4431C69.433 71.2804 70.8245 70.699 72.5949 70.699C74.2377 70.699 75.5354 71.1978 76.4881 72.1955C77.4408 73.1932 77.9171 74.566 77.9171 76.3138V77.7428H69.6243C69.6618 78.9506 69.9881 79.8807 70.6032 80.5334C71.2184 81.1785 72.0848 81.501 73.2025 81.501C73.9376 81.501 74.6202 81.4335 75.2504 81.2985C75.888 81.156 76.5706 80.9234 77.2983 80.6009V82.75C76.6531 83.0576 76.0005 83.2751 75.3404 83.4027C74.6803 83.5302 73.9264 83.5939 73.0787 83.5939ZM72.5949 72.7019C71.7547 72.7019 71.0796 72.9682 70.5695 73.5008C70.0669 74.0334 69.7668 74.8098 69.6693 75.83H75.3179C75.3029 74.8023 75.0553 74.0259 74.5752 73.5008C74.0951 72.9682 73.435 72.7019 72.5949 72.7019ZM88.3622 83.3689L87.8334 81.6361H87.7434C87.1433 82.3937 86.5394 82.9113 85.9318 83.1889C85.3242 83.4589 84.544 83.5939 83.5913 83.5939C82.3686 83.5939 81.4122 83.2639 80.7221 82.6038C80.0394 81.9436 79.6981 81.0097 79.6981 79.802C79.6981 78.5192 80.1744 77.5515 81.1271 76.8989C82.0798 76.2463 83.5313 75.89 85.4817 75.83L87.6309 75.7625V75.0986C87.6309 74.3034 87.4433 73.7108 87.0683 73.3207C86.7007 72.9232 86.1268 72.7244 85.3467 72.7244C84.7091 72.7244 84.0977 72.8182 83.5126 73.0057C82.9275 73.1932 82.3649 73.4145 81.8248 73.6696L80.9696 71.7792C81.6447 71.4266 82.3836 71.1603 83.1863 70.9803C83.9889 70.7928 84.7466 70.699 85.4592 70.699C87.042 70.699 88.2347 71.0441 89.0374 71.7342C89.8475 72.4243 90.2526 73.5083 90.2526 74.9861V83.3689H88.3622ZM84.424 81.5686C85.3842 81.5686 86.1531 81.3023 86.7307 80.7697C87.3158 80.2296 87.6084 79.4757 87.6084 78.508V77.4278L86.0106 77.4953C84.7653 77.5403 83.8576 77.7503 83.2875 78.1254C82.7249 78.493 82.4436 79.0593 82.4436 79.8245C82.4436 80.3796 82.6087 80.8109 82.9387 81.1185C83.2688 81.4185 83.7639 81.5686 84.424 81.5686ZM104.085 83.3689H101.429V75.6949C101.429 74.7423 101.249 74.0334 100.889 73.5683C100.529 73.0957 99.9663 72.8594 99.2012 72.8594C98.181 72.8594 97.4309 73.1932 96.9508 73.8608C96.4782 74.521 96.2419 75.6237 96.2419 77.169V83.3689H93.5976V70.924H95.668L96.0394 72.5556H96.1744C96.5194 71.963 97.0183 71.5054 97.6709 71.1828C98.331 70.8603 99.0549 70.699 99.8426 70.699C101.755 70.699 103.023 71.3516 103.646 72.6569H103.826C104.193 72.0418 104.711 71.5617 105.379 71.2166C106.046 70.8715 106.811 70.699 107.674 70.699C109.159 70.699 110.24 71.0741 110.915 71.8242C111.597 72.5744 111.939 73.7183 111.939 75.2561V83.3689H109.294V75.6949C109.294 74.7423 109.111 74.0334 108.743 73.5683C108.383 73.0957 107.82 72.8594 107.055 72.8594C106.027 72.8594 105.274 73.182 104.794 73.8271C104.321 74.4647 104.085 75.4474 104.085 76.7752V83.3689Z" fill="white"/>
</g>
<defs>
<filter id="filter0_d_27_1635" x="11.4326" y="0.399536" width="104.506" height="91.1945" filterUnits="userSpaceOnUse" color-interpolation-filters="sRGB">
<feFlood flood-opacity="0" result="BackgroundImageFix"/>
<feColorMatrix in="SourceAlpha" type="matrix" values="0 0 0 0 0 0 0 0 0 0 0 0 0 0 0 0 0 0 127 0" result="hardAlpha"/>
<feOffset dy="4"/>
<feGaussianBlur stdDeviation="2"/>
<feComposite in2="hardAlpha" operator="out"/>
<feColorMatrix type="matrix" values="0 0 0 0 0 0 0 0 0 0 0 0 0 0 0 0 0 0 0.25 0"/>
<feBlend mode="normal" in2="BackgroundImageFix" result="effect1_dropShadow_27_1635"/>
<feBlend mode="normal" in="SourceGraphic" in2="effect1_dropShadow_27_1635" result="shape"/>
</filter>
</defs>
</svg>
